<?xml version="1.0" encoding="UTF-8" standalone="no"?>
<!DOCTYPE svg PUBLIC "-//W3C//DTD SVG 1.1//EN" "http://www.w3.org/Graphics/SVG/1.1/DTD/svg11.dtd">
<svg width="100%" height="100%" viewBox="0 0 3000 3000" version="1.1" xmlns="http://www.w3.org/2000/svg" xmlns:xlink="http://www.w3.org/1999/xlink" xml:space="preserve" xmlns:serif="http://www.serif.com/" style="fill-rule:evenodd;clip-rule:evenodd;stroke-linejoin:round;stroke-miterlimit:2;">
    <g transform="matrix(1.83914,0,0,1.83914,-646.523,-26.4189)">
        <g transform="matrix(1,0,0,1,-22.246,0)">
            <path d="M624.096,691.933L624.096,825.445L504.328,825.445L504.328,691.933L438.75,691.933L438.75,707.248L456.028,707.248L456.028,966.026L504.328,966.026L504.328,841.545L624.096,841.545L624.096,966.026L672.396,966.026L672.396,691.933L624.096,691.933Z" style="fill:white;fill-rule:nonzero;"/>
        </g>
        <g transform="matrix(1,0,0,1,-22.246,0)">
            <path d="M803.552,950.319C781.955,950.319 775.672,947.57 775.672,930.292L775.672,832.906L866.774,832.906L866.774,817.199L775.672,817.199L775.672,707.248L905.257,707.248L905.257,691.933L710.094,691.933L710.094,707.248L727.372,707.248L727.372,966.026L909.577,966.026L909.577,950.319L803.552,950.319Z" style="fill:white;fill-rule:nonzero;"/>
        </g>
        <g transform="matrix(1.05933,0,0,1.05933,-292.632,-761.986)">
            <path d="M1352.1,1631.22L1259.05,1372.48L1234.22,1372.48L1140.43,1631.22L1154.52,1631.22L1183.06,1551.15C1182.69,1555.6 1182.32,1558.94 1182.32,1563.39C1182.32,1592.67 1197.89,1618.25 1227.54,1618.25C1262.76,1618.25 1275.36,1590.45 1275.36,1560.42L1275.36,1553.38L1303.54,1631.22L1352.1,1631.22ZM1228.55,1540.94C1233.71,1528.36 1244.04,1528.36 1249.2,1534.65C1254.36,1540.94 1254.36,1553.53 1249.2,1566.11C1245.58,1575.55 1236.3,1584.99 1228.55,1591.28C1220.81,1584.99 1211.52,1575.55 1207.91,1566.11C1202.75,1553.53 1202.75,1540.94 1207.91,1534.65C1213.07,1528.36 1223.39,1528.36 1228.55,1540.94Z" style="fill:white;fill-rule:nonzero;"/>
        </g>
        <path d="M1273.2,846.65C1267.31,846.65 1262.6,847.828 1256.71,849.792C1291.66,819.948 1337.99,805.026 1337.99,754.763C1337.99,712.745 1305.79,691.933 1243.36,691.933L1153.43,691.933L1153.43,707.641L1170.71,707.641L1170.71,966.026L1219.01,966.026L1219.01,920.867C1219.01,894.558 1231.97,864.714 1253.96,864.714C1293.23,864.714 1301.08,967.204 1347.42,967.204C1361.95,967.204 1375.3,958.172 1380.8,940.894C1378.05,943.25 1375.3,943.643 1372.94,943.643C1340.74,943.643 1337.21,846.65 1273.2,846.65ZM1219.01,876.494L1219.01,726.882C1219.01,712.745 1221.37,708.426 1234.72,707.248L1248.07,707.248C1281.45,707.248 1296.76,725.311 1296.76,757.119C1296.76,825.445 1233.15,822.304 1219.01,876.494Z" style="fill:white;fill-rule:nonzero;"/>
        <path d="M1361.16,691.933L1361.16,707.248L1441.27,707.248L1441.27,966.026L1489.18,966.026L1489.18,707.248L1569.28,707.248L1569.28,691.933L1361.16,691.933Z" style="fill:white;fill-rule:nonzero;"/>
        <g transform="matrix(0.56996,0,0,0.56996,667.409,416.274)">
            <path d="M1580.28,691.933L1580.28,707.248L1599.52,707.248L1599.52,966.026L1647.82,966.026L1647.82,691.933L1580.28,691.933Z" style="fill:white;fill-rule:nonzero;"/>
        </g>
        <g transform="matrix(0.56996,0,0,0.56996,667.409,416.274)">
            <path d="M1741.28,737.484C1741.28,714.709 1759.34,698.609 1785.65,698.609C1805.68,698.609 1828.06,708.426 1835.92,735.128C1841.41,752.799 1852.41,759.867 1863.01,759.867C1874.01,759.867 1880.29,752.014 1880.29,742.589C1880.29,706.463 1827.67,686.043 1788.01,686.043C1743.63,686.043 1701.23,710.782 1702.4,757.119C1704.76,842.723 1852.41,821.519 1852.41,896.128C1852.41,933.041 1826.49,951.889 1795.08,951.889C1767.98,951.889 1738.92,929.899 1729.89,886.311C1727.14,872.567 1715.36,866.677 1704.76,866.677C1691.02,866.677 1683.16,876.494 1683.16,888.667C1683.16,891.416 1683.16,894.165 1684.73,899.27C1696.91,943.643 1746.38,967.989 1795.08,967.989C1847.7,967.989 1898.35,938.931 1898.35,883.17C1898.35,784.214 1741.28,812.094 1741.28,737.484Z" style="fill:white;fill-rule:nonzero;"/>
        </g>
        <g transform="matrix(0.56996,0,0,0.56996,667.409,416.274)">
            <path d="M1892.86,691.933L1892.86,707.248L1972.96,707.248L1972.96,966.026L2020.87,966.026L2020.87,707.248L2100.98,707.248L2100.98,691.933L1892.86,691.933Z" style="fill:white;fill-rule:nonzero;"/>
        </g>
        <g transform="matrix(5.25761,0,0,5.25761,-7002.76,-9415.37)">
            <text x="1684.6px" y="1975.57px" style="font-family:'Original-Regular', 'Original';font-size:65.358px;fill:white;">.</text>
        </g>
    </g>
</svg>
