<?xml version="1.0" encoding="UTF-8" standalone="no"?>
<!DOCTYPE svg PUBLIC "-//W3C//DTD SVG 1.1//EN" "http://www.w3.org/Graphics/SVG/1.1/DTD/svg11.dtd">
<svg width="100%" height="100%" viewBox="0 0 192 192" version="1.1" xmlns="http://www.w3.org/2000/svg" xmlns:xlink="http://www.w3.org/1999/xlink" xml:space="preserve" xmlns:serif="http://www.serif.com/" style="fill-rule:evenodd;clip-rule:evenodd;stroke-linejoin:round;stroke-miterlimit:2;">
    <g transform="matrix(0.742056,0,0,0.742056,-828.798,-1018.46)">
        <path d="M1352.1,1631.22L1259.05,1372.48L1234.22,1372.48L1140.43,1631.22L1154.52,1631.22L1183.06,1551.15C1182.69,1555.6 1182.32,1558.94 1182.32,1563.39C1182.32,1592.67 1197.89,1618.25 1227.54,1618.25C1262.76,1618.25 1275.36,1590.45 1275.36,1560.42L1275.36,1553.38L1303.54,1631.22L1352.1,1631.22ZM1228.55,1540.94C1233.71,1528.36 1244.04,1528.36 1249.2,1534.65C1254.36,1540.94 1254.36,1553.53 1249.2,1566.11C1245.58,1575.55 1236.3,1584.99 1228.55,1591.28C1220.81,1584.99 1211.52,1575.55 1207.91,1566.11C1202.75,1553.53 1202.75,1540.94 1207.91,1534.65C1213.07,1528.36 1223.39,1528.36 1228.55,1540.94Z" style="fill-rule:nonzero;"/>
    </g>
</svg>
